<svg width="20" height="20" viewBox="0 0 20 20" fill="none" xmlns="http://www.w3.org/2000/svg">
<path fill-rule="evenodd" clip-rule="evenodd" d="M11.3636 1C11.3636 0.447715 10.9159 0 10.3636 0H9.63636C9.08408 0 8.63636 0.447716 8.63636 1V7.63636C8.63636 8.18865 8.18865 8.63636 7.63636 8.63636H1C0.447715 8.63636 0 9.08408 0 9.63636V10.3636C0 10.9159 0.447716 11.3636 1 11.3636H7.63636C8.18865 11.3636 8.63636 11.8114 8.63636 12.3636V19C8.63636 19.5523 9.08408 20 9.63636 20H10.3636C10.9159 20 11.3636 19.5523 11.3636 19V12.3636C11.3636 11.8114 11.8114 11.3636 12.3636 11.3636H19C19.5523 11.3636 20 10.9159 20 10.3636V9.63636C20 9.08408 19.5523 8.63636 19 8.63636H12.3636C11.8114 8.63636 11.3636 8.18865 11.3636 7.63636V1Z" fill="white"/>
</svg>
