<svg width="22" height="22" viewBox="0 0 22 22" fill="none" xmlns="http://www.w3.org/2000/svg">
<path fill-rule="evenodd" clip-rule="evenodd" d="M19 0H3C1.34315 0 0 1.34315 0 3V19C0 20.6569 1.34315 22 3 22H19C20.6569 22 22 20.6569 22 19V3C22 1.34315 20.6569 0 19 0ZM7 20H3C2.44772 20 2 19.5523 2 19V17.82C2.32067 17.9364 2.65886 17.9973 3 18H7V20ZM7 16H3C2.44772 16 2 15.5523 2 15V13.82C2.32067 13.9364 2.65886 13.9973 3 14H7V16ZM7 12H3C2.44772 12 2 11.5523 2 11V3C2 2.44772 2.44772 2 3 2H7V12ZM13 20H9V14H13V20ZM13 12H9V2H13V12ZM20 19C20 19.5523 19.5523 20 19 20H15V18H19C19.3411 17.9973 19.6793 17.9364 20 17.82V19ZM20 15C20 15.5523 19.5523 16 19 16H15V14H19C19.3411 13.9973 19.6793 13.9364 20 13.82V15ZM20 11C20 11.5523 19.5523 12 19 12H15V2H19C19.5523 2 20 2.44772 20 3V11ZM17 6C16.4477 6 16 6.44772 16 7C16 7.55228 16.4477 8 17 8C17.5523 8 18 7.55228 18 7C18 6.44772 17.5523 6 17 6ZM5 8C5.55228 8 6 7.55228 6 7C6 6.44772 5.55228 6 5 6C4.44772 6 4 6.44772 4 7C4 7.55228 4.44772 8 5 8Z" fill="#D3D3FD"/>
</svg>
