<svg width="358" height="340" viewBox="0 0 358 340" fill="none" xmlns="http://www.w3.org/2000/svg">
<path d="M210.83 1C235.777 1 250.341 8.50099 259.562 20.4345C268.851 32.4567 272.839 49.1168 276.259 67.7532C276.836 70.8962 277.395 74.0933 277.962 77.3297C284.085 112.293 291.012 151.849 328.672 177.363C366.742 203.154 407.731 195.299 443.478 188.449C446.357 187.898 449.203 187.352 452.01 186.832C470.931 183.323 488.029 180.941 502.315 184.889C516.473 188.802 528.024 198.987 535.72 221.072C551.281 265.729 559 292.616 559 319.462C559 346.307 551.281 373.194 535.72 417.852C520.16 462.505 509.455 488.494 492.526 510.221C475.593 531.953 452.385 549.484 411.646 577.083C391.383 590.811 375.843 595.596 362.389 595.188C348.922 594.779 337.38 589.167 325.082 581.732C321.933 579.828 318.739 577.808 315.458 575.731C293.117 561.596 266.689 544.875 222.5 544.875C179.694 544.875 149.38 560.57 122.673 574.397C117.788 576.926 113.024 579.393 108.326 581.689C93.1105 589.128 78.6243 594.777 62.9216 595.187C47.2478 595.597 30.2447 590.789 10.014 577.083C-30.7255 549.484 -53.9331 531.953 -70.866 510.221C-87.7954 488.494 -98.5004 462.505 -114.06 417.852C-121.807 395.62 -122.51 380.822 -118.909 369.715C-115.309 358.613 -107.348 351.003 -97.2624 343.26C-94.6566 341.259 -91.9147 339.255 -89.0817 337.184C-69.9956 323.23 -46.7715 306.252 -33.1221 267.081C-20.3048 230.298 -24.3848 198.182 -28.0268 169.513C-28.8317 163.177 -29.6153 157.009 -30.1903 150.997C-31.782 134.353 -31.7869 118.913 -26.3979 104.228C-21.0179 89.5672 -10.2178 75.546 10.014 61.8396C50.7492 34.2428 75.8071 19.0737 103.22 10.7683C130.636 2.46198 160.476 1 210.83 1Z" stroke="white" stroke-width="2"/>
<path d="M212.328 60.5456C228.606 60.5924 238.156 60.8573 243.874 62.0827C246.723 62.6933 248.558 63.5309 249.792 64.6496C251.018 65.7602 251.702 67.195 252.156 69.1141C252.556 70.8082 252.766 72.8319 253.022 75.2939C253.058 75.6457 253.096 76.0064 253.135 76.3764C253.446 79.3211 253.856 82.809 254.719 86.9263C256.446 95.1656 259.981 105.898 268.134 119.881C275.803 133.033 277.69 143.611 279.337 152.847C279.425 153.341 279.513 153.831 279.6 154.318C281.329 163.917 283.127 172.143 291.587 180.216C300.01 188.255 314.998 196.107 342.97 205.17C370.957 214.238 412.004 224.535 472.606 237.428C502.895 243.872 525.982 250.065 543.149 256.105C560.328 262.149 571.536 268.025 578.107 273.814C584.656 279.583 586.548 285.213 585.245 290.842C583.926 296.539 579.311 302.359 572.522 308.406C565.746 314.44 556.882 320.634 547.181 327.097C544.276 329.032 541.296 330.991 538.276 332.976C531.222 337.614 523.951 342.395 516.911 347.345C506.855 354.417 497.247 361.853 489.377 369.75C481.509 377.646 475.354 386.026 472.238 394.994C470.415 400.242 468.675 405.325 466.992 410.246C457.281 438.63 449.418 461.613 437.863 479.595C424.339 500.641 405.753 514.832 373.137 522.673C340.674 530.478 320.741 514.306 298.737 495.978L297.934 495.309C276.165 477.171 252.268 457.26 212.329 457.26C172.291 457.26 148.196 477.227 126.289 495.38L125.649 495.911C103.551 514.219 83.6185 530.39 51.5221 522.673C-12.9139 507.181 -39.5128 452.759 -47.5562 395.089C-49.5615 380.711 -48.2499 370.976 -44.7712 363.212C-41.2869 355.436 -35.6068 349.583 -28.7431 342.991C-28.028 342.304 -27.3007 341.61 -26.5623 340.905C-13.1167 328.069 3.97161 311.756 17.1002 273.974C29.3468 238.73 28.4817 212.248 27.7337 189.35C27.6361 186.363 27.5405 183.437 27.4763 180.56C27.1981 168.096 27.5084 156.584 30.7647 145.036C34.0184 133.497 40.2224 121.893 51.774 109.275C96.7528 60.1453 144.619 60.3115 207.106 60.5285C208.836 60.5345 210.576 60.5405 212.328 60.5456Z" stroke="white"/>
<path d="M214.981 107.981C228.123 112.723 236.235 119.937 241.822 128.603C247.434 137.31 250.524 147.517 253.545 158.33C253.802 159.248 254.057 160.17 254.314 161.096C260.089 181.906 266.338 204.424 290.628 220.863C315.318 237.571 339.761 235.301 361.975 233.238C362.578 233.182 363.18 233.126 363.78 233.07C386.549 230.97 406.745 229.666 423.345 248.982C435.997 263.706 449.852 270.583 461.045 276.139C464.98 278.092 468.587 279.882 471.696 281.792C477.694 285.477 481.874 289.581 483.454 296.112C485.052 302.719 484.036 311.99 479.112 326.107C469.274 354.309 448.502 389.932 423.654 419.448C411.233 434.202 397.816 447.405 384.265 457.385C370.705 467.371 357.071 474.086 344.211 475.953C331.279 477.831 321.437 476.514 312.911 473.509C304.487 470.539 297.312 465.912 289.626 460.956L289.263 460.722C273.599 450.621 256.035 439.482 222.556 439.482C189.112 439.482 167.473 450.437 147.985 460.434L147.528 460.669C128.233 470.568 111.098 479.36 86.4227 475.952C61.4125 472.498 35.2327 460.193 14.5045 443.005C-6.2337 425.809 -21.3975 403.828 -24.5807 381.093C-26.1549 369.85 -23.1875 361.869 -17.5263 355.178C-11.8039 348.415 -3.32507 342.958 6.22628 336.855L6.53976 336.655C25.5066 324.536 48.2089 310.031 59.3444 278.109C69.5981 248.715 65.8482 221.33 62.4605 196.589C62.1588 194.386 61.8601 192.204 61.5743 190.044C58.0677 163.532 56.5372 140.366 74.792 120.504C93.1855 100.491 114.883 92.5704 138.638 92.0299C162.44 91.4883 188.315 98.3579 214.981 107.981Z" stroke="white" stroke-width="2"/>
<path d="M147.324 107.5C160.035 107.5 171.814 113.658 183.013 123.421C194.211 133.185 204.779 146.512 215.063 160.758C219.358 166.706 223.609 172.823 227.833 178.903C233.706 187.354 239.529 195.734 245.351 203.491C255.37 216.838 265.458 228.442 275.953 235.565C296.854 249.753 313.574 255.451 330.039 257.592C341.613 259.096 353.074 258.841 365.736 258.559C371.041 258.441 376.558 258.318 382.382 258.318C401.996 258.318 423.332 269.022 437.784 285.44C452.228 301.848 459.739 323.894 451.852 346.574C443.959 369.267 421.139 385.669 394.93 399.963C385.091 405.329 374.801 410.386 364.672 415.363C361.322 417.009 357.99 418.646 354.697 420.283C341.459 426.866 328.864 433.442 318.413 440.537C313.252 444.04 308.686 445.741 304.55 446.074C300.421 446.407 296.679 445.38 293.154 443.357C286.067 439.288 279.902 431.223 273.354 422.157C272.749 421.318 272.14 420.471 271.527 419.619C265.543 411.294 259.172 402.43 251.484 395.433C242.993 387.707 232.864 382.227 219.824 382.227C206.788 382.227 196.141 387.703 186.874 395.419C178.709 402.216 171.583 410.78 164.825 418.903C163.922 419.987 163.026 421.065 162.135 422.128C154.545 431.189 147.335 439.268 139.458 443.346C135.534 445.378 131.458 446.408 127.093 446.074C122.725 445.74 118.029 444.037 112.873 440.537C93.3951 427.315 74.3049 430.989 58.0132 434.124C56.7053 434.376 55.4154 434.624 54.1448 434.86C45.5576 436.453 37.9134 437.465 31.4329 435.297C25.0067 433.147 19.6225 427.826 15.6739 416.472C11.7474 405.181 13.4219 394.004 18.4391 382.835C23.4614 371.655 31.8181 360.519 41.2032 349.344C45.0711 344.739 49.121 340.119 53.1792 335.49C58.9413 328.917 64.72 322.325 70.0182 315.728C79.0605 304.469 86.785 293.102 90.7944 281.573C97.3523 262.717 95.265 246.253 93.4013 231.554C92.9894 228.305 92.5883 225.142 92.2941 222.059C91.4795 213.524 91.4767 205.605 94.2355 198.073C96.9898 190.552 102.519 183.361 112.873 176.333C123.4 169.187 127.646 161.224 128.854 153.288C130.008 145.697 128.372 138.17 126.929 131.535C126.871 131.269 126.814 131.005 126.757 130.743C126.013 127.314 125.357 124.148 125.182 121.315C125.007 118.483 125.317 116.042 126.457 114.037C128.72 110.052 134.445 107.5 147.324 107.5Z" stroke="white"/>
</svg>
