<svg width="25" height="25" viewBox="0 0 25 25" fill="none" xmlns="http://www.w3.org/2000/svg">
<path d="M5.59056 7.81253H-6.10352e-05V25H5.59056V7.81253Z" fill="white"/>
<path d="M20.8187 8.01409C20.7593 7.99534 20.7031 7.97503 20.6406 7.95784C20.5656 7.94066 20.4906 7.92659 20.414 7.91409C20.1171 7.85472 19.7921 7.81253 19.4109 7.81253C16.1515 7.81253 14.0843 10.1828 13.4031 11.0985V7.81253H7.81244V25H13.4031V15.625C13.4031 15.625 17.6281 9.74066 19.4109 14.0625C19.4109 17.9203 19.4109 25 19.4109 25H24.9999V13.4016C24.9999 10.8047 23.2203 8.64066 20.8187 8.01409Z" fill="white"/>
<path d="M2.73425 5.46875C4.24441 5.46875 5.46863 4.24453 5.46863 2.73438C5.46863 1.22422 4.24441 0 2.73425 0C1.2241 0 -0.00012207 1.22422 -0.00012207 2.73438C-0.00012207 4.24453 1.2241 5.46875 2.73425 5.46875Z" fill="white"/>
</svg>
