<svg width="145" height="22" viewBox="0 0 145 22" fill="none" xmlns="http://www.w3.org/2000/svg">
<path d="M7.83461 21.336C6.60261 21.336 5.51994 21.14 4.58661 20.748C3.65328 20.3373 2.90661 19.7773 2.34661 19.068C1.78661 18.3587 1.45061 17.5373 1.33861 16.604H4.95061C5.06261 17.1453 5.36128 17.612 5.84661 18.004C6.35061 18.3773 6.99461 18.564 7.77861 18.564C8.56261 18.564 9.13194 18.4053 9.48661 18.088C9.85994 17.7707 10.0466 17.4067 10.0466 16.996C10.0466 16.3987 9.78528 15.9973 9.26261 15.792C8.73994 15.568 8.01194 15.3533 7.07861 15.148C6.48128 15.0173 5.87461 14.8587 5.25861 14.672C4.64261 14.4853 4.07328 14.252 3.55061 13.972C3.04661 13.6733 2.63594 13.3 2.31861 12.852C2.00128 12.3853 1.84261 11.816 1.84261 11.144C1.84261 9.912 2.32794 8.876 3.29861 8.036C4.28794 7.196 5.66928 6.776 7.44261 6.776C9.08528 6.776 10.3919 7.15867 11.3626 7.924C12.3519 8.68933 12.9399 9.744 13.1266 11.088H9.73861C9.53328 10.0613 8.75861 9.548 7.41461 9.548C6.74261 9.548 6.21994 9.67867 5.84661 9.94C5.49194 10.2013 5.31461 10.528 5.31461 10.92C5.31461 11.3307 5.58528 11.6573 6.12661 11.9C6.66794 12.1427 7.38661 12.3667 8.28261 12.572C9.25328 12.796 10.1399 13.048 10.9426 13.328C11.7639 13.5893 12.4173 13.9907 12.9026 14.532C13.3879 15.0547 13.6306 15.8107 13.6306 16.8C13.6493 17.6587 13.4253 18.4333 12.9586 19.124C12.4919 19.8147 11.8199 20.356 10.9426 20.748C10.0653 21.14 9.02928 21.336 7.83461 21.336ZM23.0695 21.336C21.7255 21.336 20.5122 21.028 19.4295 20.412C18.3655 19.796 17.5162 18.9467 16.8815 17.864C16.2655 16.7627 15.9575 15.4933 15.9575 14.056C15.9575 12.6187 16.2749 11.3587 16.9095 10.276C17.5442 9.17467 18.3935 8.316 19.4575 7.7C20.5402 7.084 21.7535 6.776 23.0975 6.776C24.4229 6.776 25.6175 7.084 26.6815 7.7C27.7642 8.316 28.6135 9.17467 29.2295 10.276C29.8642 11.3587 30.1815 12.6187 30.1815 14.056C30.1815 15.4933 29.8642 16.7627 29.2295 17.864C28.6135 18.9467 27.7642 19.796 26.6815 20.412C25.5989 21.028 24.3949 21.336 23.0695 21.336ZM23.0695 18.228C24.0029 18.228 24.8149 17.8827 25.5055 17.192C26.1962 16.4827 26.5415 15.4373 26.5415 14.056C26.5415 12.6747 26.1962 11.6387 25.5055 10.948C24.8149 10.2387 24.0122 9.884 23.0975 9.884C22.1455 9.884 21.3242 10.2387 20.6335 10.948C19.9615 11.6387 19.6255 12.6747 19.6255 14.056C19.6255 15.4373 19.9615 16.4827 20.6335 17.192C21.3242 17.8827 22.1362 18.228 23.0695 18.228ZM39.79 21.336C38.3713 21.336 37.1207 21.028 36.038 20.412C34.9553 19.796 34.0967 18.9373 33.462 17.836C32.846 16.7347 32.538 15.4747 32.538 14.056C32.538 12.6373 32.846 11.3773 33.462 10.276C34.0967 9.17467 34.9553 8.316 36.038 7.7C37.1207 7.084 38.3713 6.776 39.79 6.776C41.5633 6.776 43.0567 7.24267 44.27 8.176C45.4834 9.09067 46.258 10.36 46.594 11.984H42.814C42.6273 11.312 42.254 10.7893 41.694 10.416C41.1527 10.024 40.5087 9.828 39.762 9.828C38.7727 9.828 37.9327 10.2013 37.242 10.948C36.5513 11.6947 36.206 12.7307 36.206 14.056C36.206 15.3813 36.5513 16.4173 37.242 17.164C37.9327 17.9107 38.7727 18.284 39.762 18.284C40.5087 18.284 41.1527 18.0973 41.694 17.724C42.254 17.3507 42.6273 16.8187 42.814 16.128H46.594C46.258 17.696 45.4834 18.956 44.27 19.908C43.0567 20.86 41.5633 21.336 39.79 21.336ZM51.3071 4.956C50.6537 4.956 50.1124 4.76 49.6831 4.368C49.2724 3.976 49.0671 3.48133 49.0671 2.884C49.0671 2.28667 49.2724 1.80133 49.6831 1.428C50.1124 1.036 50.6537 0.839999 51.3071 0.839999C51.9604 0.839999 52.4924 1.036 52.9031 1.428C53.3324 1.80133 53.5471 2.28667 53.5471 2.884C53.5471 3.48133 53.3324 3.976 52.9031 4.368C52.4924 4.76 51.9604 4.956 51.3071 4.956ZM49.5151 21V7.112H53.0991V21H49.5151ZM61.2279 21.336C60.0333 21.336 59.0533 21.1493 58.2879 20.776C57.5226 20.384 56.9533 19.8707 56.5799 19.236C56.2066 18.6013 56.0199 17.9013 56.0199 17.136C56.0199 15.848 56.5239 14.8027 57.5319 14C58.5399 13.1973 60.0519 12.796 62.0679 12.796H65.5959V12.46C65.5959 11.508 65.3253 10.808 64.7839 10.36C64.2426 9.912 63.5706 9.688 62.7679 9.688C62.0399 9.688 61.4053 9.86533 60.8639 10.22C60.3226 10.556 59.9866 11.06 59.8559 11.732H56.3559C56.4493 10.724 56.7853 9.84667 57.3639 9.1C57.9613 8.35333 58.7266 7.784 59.6599 7.392C60.5933 6.98133 61.6386 6.776 62.7959 6.776C64.7746 6.776 66.3333 7.27067 67.4719 8.26C68.6106 9.24933 69.1799 10.6493 69.1799 12.46V21H66.1279L65.7919 18.76C65.3813 19.5067 64.8026 20.1227 64.0559 20.608C63.3279 21.0933 62.3853 21.336 61.2279 21.336ZM62.0399 18.536C63.0666 18.536 63.8599 18.2 64.4199 17.528C64.9986 16.856 65.3626 16.0253 65.5119 15.036H62.4599C61.5079 15.036 60.8266 15.2133 60.4159 15.568C60.0053 15.904 59.7999 16.324 59.7999 16.828C59.7999 17.3693 60.0053 17.7893 60.4159 18.088C60.8266 18.3867 61.3679 18.536 62.0399 18.536ZM72.2001 21V0.839999H75.7841V21H72.2001ZM80.9782 4.956C80.3248 4.956 79.7835 4.76 79.3542 4.368C78.9435 3.976 78.7382 3.48133 78.7382 2.884C78.7382 2.28667 78.9435 1.80133 79.3542 1.428C79.7835 1.036 80.3248 0.839999 80.9782 0.839999C81.6315 0.839999 82.1635 1.036 82.5742 1.428C83.0035 1.80133 83.2182 2.28667 83.2182 2.884C83.2182 3.48133 83.0035 3.976 82.5742 4.368C82.1635 4.76 81.6315 4.956 80.9782 4.956ZM79.1862 21V7.112H82.7702V21H79.1862ZM85.215 21V18.116L92.299 10.08H85.299V7.112H96.387V9.996L89.191 18.032H96.527V21H85.215ZM105.857 21.336C104.457 21.336 103.216 21.0373 102.133 20.44C101.051 19.8427 100.201 19.0027 99.5855 17.92C98.9695 16.8373 98.6615 15.5867 98.6615 14.168C98.6615 12.7307 98.9601 11.452 99.5575 10.332C100.173 9.212 101.013 8.344 102.077 7.728C103.16 7.09333 104.429 6.776 105.885 6.776C107.248 6.776 108.452 7.07467 109.497 7.672C110.543 8.26933 111.355 9.09067 111.933 10.136C112.531 11.1627 112.829 12.3107 112.829 13.58C112.829 13.7853 112.82 14 112.801 14.224C112.801 14.448 112.792 14.6813 112.773 14.924H102.217C102.292 16.0067 102.665 16.856 103.337 17.472C104.028 18.088 104.859 18.396 105.829 18.396C106.557 18.396 107.164 18.2373 107.649 17.92C108.153 17.584 108.527 17.1547 108.769 16.632H112.409C112.148 17.5093 111.709 18.312 111.093 19.04C110.496 19.7493 109.749 20.3093 108.853 20.72C107.976 21.1307 106.977 21.336 105.857 21.336ZM105.885 9.688C105.008 9.688 104.233 9.94 103.561 10.444C102.889 10.9293 102.46 11.676 102.273 12.684H109.189C109.133 11.7693 108.797 11.0413 108.181 10.5C107.565 9.95867 106.8 9.688 105.885 9.688ZM115.444 21V7.112H118.636L118.972 9.716C119.476 8.82 120.157 8.11067 121.016 7.588C121.893 7.04667 122.92 6.776 124.096 6.776V10.556H123.088C122.304 10.556 121.604 10.6773 120.988 10.92C120.372 11.1627 119.886 11.5827 119.532 12.18C119.196 12.7773 119.028 13.608 119.028 14.672V21H115.444Z" fill="white"/>
<path d="M134.003 11.322V3.6H136.775L138.799 8.858L140.999 3.6H143.573V11.322H141.637L141.593 6.262L139.459 11.322H138.007L135.873 6.086V11.322H134.003ZM128.855 11.322L128.877 5.272H126.985V3.6H132.859V5.272H130.945L130.967 11.322H128.855Z" fill="white"/>
</svg>
