<svg width="21" height="20" viewBox="0 0 21 20" fill="none" xmlns="http://www.w3.org/2000/svg">
<path fill-rule="evenodd" clip-rule="evenodd" d="M10.0282 0C4.50537 0 0.0282136 4.47715 0.0282136 10C0.0194714 12.3091 0.819006 14.5485 2.28821 16.33L0.288214 18.33C0.00446904 18.6176 -0.0783831 19.0476 0.0782136 19.42C0.248082 19.788 0.62327 20.017 1.02821 20H10.0282C15.5511 20 20.0282 15.5228 20.0282 10C20.0282 4.47715 15.5511 8.22968e-08 10.0282 0ZM10.0282 18H3.43821L4.36821 17.07C4.75594 16.68 4.75594 16.05 4.36821 15.66C1.6681 12.9629 1.2491 8.73406 3.36744 5.55952C5.48578 2.38498 9.55154 1.1488 13.0784 2.60691C16.6053 4.06503 18.6112 7.81138 17.8693 11.555C17.1275 15.2986 13.8446 17.997 10.0282 18Z" fill="#D3D3FD"/>
</svg>
