<svg width="27" height="33" viewBox="0 0 27 33" fill="none" xmlns="http://www.w3.org/2000/svg">
<path d="M13.9518 0C4.84376 0 0 5.79589 0 12.1157C0 15.0466 1.6492 18.7015 4.28918 19.8607C4.69005 20.0402 4.90815 19.9638 4.99746 19.5946C5.07639 19.3141 5.42326 17.9631 5.59151 17.3258C5.64343 17.1216 5.61643 16.9442 5.45027 16.7524C4.57374 15.7458 3.87791 13.9122 3.87791 12.192C3.87791 7.78423 7.40688 3.50435 13.4117 3.50435C18.6044 3.50435 22.2372 6.854 22.2372 11.6454C22.2372 17.0597 19.3522 20.8054 15.603 20.8054C13.528 20.8054 11.9827 19.1883 12.4729 17.1876C13.0649 14.8053 14.2259 12.2436 14.2259 10.5254C14.2259 8.98466 13.3494 7.70997 11.559 7.70997C9.44657 7.70997 7.73298 9.78701 7.73298 12.5756C7.73298 14.3474 8.36441 15.5437 8.36441 15.5437C8.36441 15.5437 6.27487 23.9261 5.88645 25.4916C5.23009 28.142 5.97577 32.4343 6.04016 32.8035C6.07962 33.0077 6.31018 33.0716 6.43896 32.9046C6.64459 32.6364 9.17032 29.0578 9.87861 26.4713C10.1362 25.5287 11.1934 21.7067 11.1934 21.7067C11.8892 22.9546 13.8978 24.0003 16.0372 24.0003C22.4013 24.0003 27 18.4458 27 11.5526C26.9772 4.94404 21.2818 0 13.9518 0Z" fill="white"/>
</svg>
