<svg width="243" height="150" viewBox="0 0 243 150" fill="none" xmlns="http://www.w3.org/2000/svg">
<g opacity="0.1">
<path d="M332.83 1C357.777 1 372.341 8.50099 381.562 20.4345C390.851 32.4567 394.839 49.1168 398.259 67.7532C398.836 70.8962 399.395 74.0933 399.962 77.3297C406.085 112.293 413.012 151.849 450.672 177.363C488.742 203.154 529.731 195.299 565.478 188.449C568.357 187.898 571.203 187.352 574.01 186.832C592.931 183.323 610.029 180.941 624.315 184.889C638.473 188.802 650.024 198.987 657.72 221.072C673.281 265.729 681 292.616 681 319.462C681 346.307 673.281 373.194 657.72 417.852C642.16 462.505 631.455 488.494 614.526 510.221C597.593 531.953 574.385 549.484 533.646 577.083C513.383 590.811 497.843 595.596 484.389 595.188C470.922 594.779 459.38 589.167 447.082 581.732C443.933 579.828 440.739 577.808 437.458 575.731C415.117 561.596 388.689 544.875 344.5 544.875C301.694 544.875 271.38 560.57 244.673 574.397C239.788 576.926 235.024 579.393 230.326 581.689C215.11 589.128 200.624 594.777 184.922 595.187C169.248 595.597 152.245 590.789 132.014 577.083C91.2745 549.484 68.0669 531.953 51.134 510.221C34.2046 488.494 23.4996 462.505 7.93975 417.852C0.193188 395.62 -0.510338 380.822 3.0914 369.715C6.69137 358.613 14.6516 351.003 24.7376 343.26C27.3434 341.259 30.0853 339.255 32.9183 337.184C52.0044 323.23 75.2285 306.252 88.8779 267.081C101.695 230.298 97.6152 198.182 93.9732 169.513C93.1683 163.177 92.3847 157.009 91.8097 150.997C90.218 134.353 90.2131 118.913 95.6021 104.228C100.982 89.5672 111.782 75.546 132.014 61.8396C172.749 34.2428 197.807 19.0737 225.22 10.7683C252.636 2.46198 282.476 1 332.83 1Z" stroke="white" stroke-width="2"/>
<path d="M334.328 60.5456C350.606 60.5924 360.156 60.8573 365.874 62.0827C368.723 62.6933 370.558 63.5309 371.792 64.6496C373.018 65.7602 373.702 67.195 374.156 69.1141C374.556 70.8082 374.766 72.8319 375.022 75.2939C375.058 75.6457 375.096 76.0064 375.135 76.3764C375.446 79.3211 375.856 82.809 376.719 86.9263C378.446 95.1656 381.981 105.898 390.134 119.881C397.803 133.033 399.69 143.611 401.337 152.847C401.425 153.341 401.513 153.831 401.6 154.318C403.329 163.917 405.127 172.143 413.587 180.216C422.01 188.255 436.998 196.107 464.97 205.17C492.957 214.238 534.004 224.535 594.606 237.428C624.895 243.872 647.982 250.065 665.149 256.105C682.328 262.149 693.536 268.025 700.107 273.814C706.656 279.583 708.548 285.213 707.245 290.842C705.926 296.539 701.311 302.359 694.522 308.406C687.746 314.44 678.882 320.634 669.181 327.097C666.276 329.032 663.296 330.991 660.276 332.976C653.222 337.614 645.951 342.395 638.911 347.345C628.855 354.417 619.247 361.853 611.377 369.75C603.509 377.646 597.354 386.026 594.238 394.994C592.415 400.242 590.675 405.325 588.992 410.246C579.281 438.63 571.418 461.613 559.863 479.595C546.339 500.641 527.753 514.832 495.137 522.673C462.674 530.478 442.741 514.306 420.737 495.978L419.934 495.309C398.165 477.171 374.268 457.26 334.329 457.26C294.291 457.26 270.196 477.227 248.289 495.38L247.649 495.911C225.551 514.219 205.619 530.39 173.522 522.673C109.086 507.181 82.4872 452.759 74.4438 395.089C72.4385 380.711 73.7501 370.976 77.2288 363.212C80.7131 355.436 86.3932 349.583 93.2569 342.991C93.972 342.304 94.6993 341.61 95.4377 340.905C108.883 328.069 125.972 311.756 139.1 273.974C151.347 238.73 150.482 212.248 149.734 189.35C149.636 186.363 149.541 183.437 149.476 180.56C149.198 168.096 149.508 156.584 152.765 145.036C156.018 133.497 162.222 121.893 173.774 109.275C218.753 60.1453 266.619 60.3115 329.106 60.5285C330.836 60.5345 332.576 60.5405 334.328 60.5456Z" stroke="white"/>
<path d="M336.981 107.981C350.123 112.723 358.235 119.937 363.822 128.603C369.434 137.31 372.524 147.517 375.545 158.33C375.802 159.248 376.057 160.17 376.314 161.096C382.089 181.906 388.338 204.424 412.628 220.863C437.318 237.571 461.761 235.301 483.975 233.238C484.578 233.182 485.18 233.126 485.78 233.07C508.549 230.97 528.745 229.666 545.345 248.982C557.997 263.706 571.852 270.583 583.045 276.139C586.98 278.092 590.587 279.882 593.696 281.792C599.694 285.477 603.874 289.581 605.454 296.112C607.052 302.719 606.036 311.99 601.112 326.107C591.274 354.309 570.502 389.932 545.654 419.448C533.233 434.202 519.816 447.405 506.265 457.385C492.705 467.371 479.071 474.086 466.211 475.953C453.279 477.831 443.437 476.514 434.911 473.509C426.487 470.539 419.312 465.912 411.626 460.956L411.263 460.722C395.599 450.621 378.035 439.482 344.556 439.482C311.112 439.482 289.473 450.437 269.985 460.434L269.528 460.669C250.233 470.568 233.098 479.36 208.423 475.952C183.413 472.498 157.233 460.193 136.505 443.005C115.766 425.809 100.603 403.828 97.4193 381.093C95.8451 369.85 98.8125 361.869 104.474 355.178C110.196 348.415 118.675 342.958 128.226 336.855L128.54 336.655C147.507 324.536 170.209 310.031 181.344 278.109C191.598 248.715 187.848 221.33 184.46 196.589C184.159 194.386 183.86 192.204 183.574 190.044C180.068 163.532 178.537 140.366 196.792 120.504C215.186 100.491 236.883 92.5704 260.638 92.0299C284.44 91.4883 310.315 98.3579 336.981 107.981Z" stroke="white" stroke-width="2"/>
<path d="M269.324 107.5C282.035 107.5 293.814 113.658 305.013 123.421C316.211 133.185 326.779 146.512 337.063 160.758C341.358 166.706 345.609 172.823 349.833 178.903C355.706 187.354 361.529 195.734 367.351 203.491C377.37 216.838 387.458 228.442 397.953 235.565C418.854 249.753 435.574 255.451 452.039 257.592C463.613 259.096 475.074 258.841 487.736 258.559C493.041 258.441 498.558 258.318 504.382 258.318C523.996 258.318 545.332 269.022 559.784 285.44C574.228 301.848 581.739 323.894 573.852 346.574C565.959 369.267 543.139 385.669 516.93 399.963C507.091 405.329 496.801 410.386 486.672 415.363C483.322 417.009 479.99 418.646 476.697 420.283C463.459 426.866 450.864 433.442 440.413 440.537C435.252 444.04 430.686 445.741 426.55 446.074C422.421 446.407 418.679 445.38 415.154 443.357C408.067 439.288 401.902 431.223 395.354 422.157C394.749 421.318 394.14 420.471 393.527 419.619C387.543 411.294 381.172 402.43 373.484 395.433C364.993 387.707 354.864 382.227 341.824 382.227C328.788 382.227 318.141 387.703 308.874 395.419C300.709 402.216 293.583 410.78 286.825 418.903C285.922 419.987 285.026 421.065 284.135 422.128C276.545 431.189 269.335 439.268 261.458 443.346C257.534 445.378 253.458 446.408 249.093 446.074C244.725 445.74 240.029 444.037 234.873 440.537C215.395 427.315 196.305 430.989 180.013 434.124C178.705 434.376 177.415 434.624 176.145 434.86C167.558 436.453 159.913 437.465 153.433 435.297C147.007 433.147 141.622 427.826 137.674 416.472C133.747 405.181 135.422 394.004 140.439 382.835C145.461 371.655 153.818 360.519 163.203 349.344C167.071 344.739 171.121 340.119 175.179 335.49C180.941 328.917 186.72 322.325 192.018 315.728C201.061 304.469 208.785 293.102 212.794 281.573C219.352 262.717 217.265 246.253 215.401 231.554C214.989 228.305 214.588 225.142 214.294 222.059C213.479 213.524 213.477 205.605 216.235 198.073C218.99 190.552 224.519 183.361 234.873 176.333C245.4 169.187 249.646 161.224 250.854 153.288C252.008 145.697 250.372 138.17 248.929 131.535C248.871 131.269 248.814 131.005 248.757 130.743C248.013 127.314 247.357 124.148 247.182 121.315C247.007 118.483 247.317 116.042 248.457 114.037C250.72 110.052 256.445 107.5 269.324 107.5Z" stroke="white"/>
</g>
</svg>
