<svg width="24" height="24" viewBox="0 0 24 24" fill="none" xmlns="http://www.w3.org/2000/svg">
<path fill-rule="evenodd" clip-rule="evenodd" d="M20.0435 12.6614C19.7118 12.2839 19.7118 11.7189 20.0435 11.3414L21.3235 9.90137C21.6128 9.5786 21.6613 9.10616 21.4435 8.73137L19.4435 5.27137C19.2279 4.89708 18.7964 4.70349 18.3735 4.79137L16.4935 5.17137C15.9984 5.27366 15.5049 4.99041 15.3435 4.51137L14.7335 2.68137C14.5959 2.27406 14.2134 2.00026 13.7835 2.00137H9.78346C9.33531 1.97798 8.92645 2.256 8.78346 2.68137L8.22346 4.51137C8.06204 4.99041 7.56851 5.27366 7.07346 5.17137L5.14346 4.79137C4.7438 4.73489 4.34937 4.92422 4.14346 5.27137L2.14346 8.73137C1.92019 9.10194 1.96055 9.57406 2.24346 9.90137L3.51346 11.3414C3.8451 11.7189 3.8451 12.2839 3.51346 12.6614L2.24346 14.1014C1.96055 14.4287 1.92019 14.9008 2.14346 15.2714L4.14346 18.7314C4.35903 19.1057 4.79056 19.2992 5.21346 19.2114L7.09346 18.8314C7.58851 18.7291 8.08204 19.0123 8.24346 19.4914L8.85346 21.3214C8.99645 21.7467 9.40531 22.0248 9.85346 22.0014H13.8535C14.2834 22.0025 14.6659 21.7287 14.8035 21.3214L15.4135 19.4914C15.5749 19.0123 16.0684 18.7291 16.5635 18.8314L18.4435 19.2114C18.8664 19.2992 19.2979 19.1057 19.5135 18.7314L21.5135 15.2714C21.7313 14.8966 21.6828 14.4241 21.3935 14.1014L20.0435 12.6614ZM18.5535 14.0014L19.3535 14.9014L18.0735 17.1214L16.8935 16.8814C15.4027 16.5766 13.9198 17.4362 13.4435 18.8814L13.0635 20.0014H10.5035L10.1435 18.8614C9.66708 17.4162 8.18425 16.5566 6.69346 16.8614L5.51346 17.1014L4.21346 14.8914L5.01346 13.9914C6.03203 12.8526 6.03203 11.1302 5.01346 9.99137L4.21346 9.09137L5.49346 6.89137L6.67346 7.13137C8.16425 7.43611 9.64708 6.5765 10.1235 5.13137L10.5035 4.00137H13.0635L13.4435 5.14137C13.9198 6.5865 15.4027 7.44611 16.8935 7.14137L18.0735 6.90137L19.3535 9.12137L18.5535 10.0214C17.5468 11.1571 17.5468 12.8657 18.5535 14.0014ZM11.7835 8.00137C9.57432 8.00137 7.78346 9.79223 7.78346 12.0014C7.78346 14.2105 9.57432 16.0014 11.7835 16.0014C13.9926 16.0014 15.7835 14.2105 15.7835 12.0014C15.7835 10.9405 15.362 9.92309 14.6119 9.17294C13.8617 8.4228 12.8443 8.00137 11.7835 8.00137ZM11.7835 14.0014C10.6789 14.0014 9.78346 13.1059 9.78346 12.0014C9.78346 10.8968 10.6789 10.0014 11.7835 10.0014C12.888 10.0014 13.7835 10.8968 13.7835 12.0014C13.7835 13.1059 12.888 14.0014 11.7835 14.0014Z" fill="#8F92A1"/>
</svg>
